<svg xmlns="http://www.w3.org/2000/svg">

 <!-- Check Logo -->
    <symbol id="check" viewBox="0 0 640 640">
        <path fill="currentColor" d="M320 576C461.4 576 576 461.4 576 320C576 178.6 461.4 64 320 64C178.6 64 64 178.6 64 320C64 461.4 178.6 576 320 576zM404.4 276.7L324.4 404.7C320.2 411.4 313 415.6 305.1 416C297.2 416.4 289.6 412.8 284.9 406.4L236.9 342.4C228.9 331.8 231.1 316.8 241.7 308.8C252.3 300.8 267.3 303 275.3 313.6L302.3 349.6L363.7 251.3C370.7 240.1 385.5 236.6 396.8 243.7C408.1 250.8 411.5 265.5 404.4 276.8z"/>
    </symbol>
  
  <!-- GitHub logo -->
  <symbol id="github" viewBox="0 0 512 512">
    <path fill="currentColor" d="M256,8C119,8,8,119,8,256c0,109,70.6,201.6,168.6,234.3c12.3,2.3,16.8-5.3,16.8-11.8
      c0-5.8-0.2-25.1-0.3-45.5c-68.6,14.9-83.1-33.1-83.1-33.1c-11.2-28.4-27.4-36-27.4-36c-22.4-15.3,1.7-15,1.7-15
      c24.8,1.8,37.8,25.5,37.8,25.5c22,37.7,57.7,26.8,71.8,20.5c2.2-15.9,8.6-26.8,15.6-33c-54.8-6.2-112.5-27.4-112.5-121.9
      c0-26.9,9.6-49,25.4-66.3c-2.6-6.2-11-31.2,2.4-65.1c0,0,20.7-6.6,67.8,25.2c19.7-5.5,40.9-8.3,62-8.4c21,0.1,42.3,2.9,62.1,8.4
      c47-31.8,67.7-25.2,67.7-25.2c13.4,33.9,5,58.9,2.4,65.1c15.8,17.3,25.3,39.4,25.3,66.3c0,94.8-57.8,115.6-112.8,121.7
      c8.8,7.6,16.7,22.6,16.7,45.6c0,32.9-0.3,59.4-0.3,67.5c0,6.6,4.4,14.3,16.9,11.8C433.4,457.6,504,364.9,504,256
      C504,119,393,8,256,8z"/>
  </symbol>

  <!-- LinkedIn Symbol -->
  <symbol id="linkedin" viewBox="96 96 448 448">
    <path fill="currentColor" d="M512 96L127.9 96C110.3 96 96 110.5 96 128.3L96 511.7C96 529.5 110.3 544 127.9 544L512 544C529.6 544 544 529.5 544 511.7L544 128.3C544 110.5 529.6 96 512 96zM231.4 480L165 480L165 266.2L231.5 266.2L231.5 480L231.4 480zM198.2 160C219.5 160 236.7 177.2 236.7 198.5C236.7 219.8 219.5 237 198.2 237C176.9 237 159.7 219.8 159.7 198.5C159.7 177.2 176.9 160 198.2 160zM480.3 480L413.9 480L413.9 376C413.9 351.2 413.4 319.3 379.4 319.3C344.8 319.3 339.5 346.3 339.5 374.2L339.5 480L273.1 480L273.1 266.2L336.8 266.2L336.8 295.4L337.7 295.4C346.6 278.6 368.3 260.9 400.6 260.9C467.8 260.9 480.3 305.2 480.3 362.8L480.3 480z"/>
  </symbol>

  <!-- Spring Icon -->
  <symbol id="spring-icon" viewBox="0 0 256 256">
     <g>
        <path d="M38.9437824,35.879008 C89.5234256,-13.1200214 170.398168,-11.8028432 219.397197,39.0402357 C224.929346,31.6640377 229.671187,23.4975328 233.095851,15.0675923 C249.165425,64.0666217 258.912543,105.162582 255.224444,137.038295 C253.380395,163.90873 242.842969,189.725423 225.456217,210.273403 C180.145286,264.014274 99.53398,270.863601 45.7931091,225.55267 L45.7931091,225.55267 L44.765,224.638 L44.7103323,224.601984 C44.5420247,224.484832 44.376007,224.362668 44.2124952,224.235492 C43.7219599,223.853965 43.2765312,223.438607 42.8762093,222.995252 L42.732,222.831 L41.0512675,221.3377 C39.4121124,219.93271 37.7729573,218.52772 36.3188215,216.93771 L35.7825547,216.332423 C-13.2164747,165.752779 -11.6358609,84.8780374 38.9437824,35.879008 Z M57.9111486,207.375611 C53.169307,203.687512 46.3199803,204.214383 42.6318814,208.956225 C39.3888978,213.125775 39.4048731,218.924805 42.6798072,222.771269 L42.732,222.831 L44.765,224.638 L44.9644841,224.773953 C49.5691585,227.80174 55.7644273,227.175885 59.2982065,222.896387 L59.4917624,222.654878 C63.1798614,217.913037 62.3895545,211.06371 57.9111486,207.375611 Z M231.778672,28.2393744 C218.60689,55.9001168 185.940871,76.9749681 157.753257,83.5608592 C131.146257,89.8833146 107.963921,84.6146018 83.4644059,94.0982849 C27.6160498,115.436572 28.6697923,181.822354 59.2283268,196.838185 L59.2283268,196.838185 L61.0723763,197.891928 C61.0723763,197.891928 83.1456487,193.50309 104.973663,187.707242 L106.843514,187.207079 C115.561826,184.857554 124.138869,182.296538 131.146257,179.714869 C167.500376,166.279651 207.542593,133.08676 220.714375,94.6251562 C213.865049,134.667374 179.35498,173.392413 144.84491,191.042601 C126.404416,200.526284 112.178891,202.633769 81.883792,213.171195 C78.195693,214.488373 75.297901,215.805551 75.297901,215.805551 C75.6675607,215.754564 76.0372203,215.70481 76.4060145,215.65629 L77.1421925,215.560893 L77.1421925,215.560893 L77.8745239,215.468787 C84.5652297,214.639554 90.5771682,214.224938 90.5771682,214.224938 C133.517178,212.117452 200.956702,226.342977 232.305544,184.45671 C264.444692,141.780136 246.531068,72.7599979 231.778672,28.2393744 Z" fill="#6DB33F">

        </path>
        <path d="M57.9111486,207.375611 C62.3895545,211.06371 63.1798614,217.913037 59.4917624,222.654878 C55.8036635,227.39672 48.9543368,227.923591 44.2124952,224.235492 C39.4706537,220.547393 38.9437824,213.698066 42.6318814,208.956225 C46.3199803,204.214383 53.169307,203.687512 57.9111486,207.375611 Z M231.778672,28.2393744 C246.531068,72.7599979 264.444692,141.780136 232.305544,184.45671 C200.956702,226.342977 133.517178,212.117452 90.5771682,214.224938 C90.5771682,214.224938 84.5652297,214.639554 77.8745239,215.468787 L77.1421925,215.560893 C76.5300999,215.63902 75.9140004,215.720572 75.297901,215.805551 C75.297901,215.805551 78.195693,214.488373 81.883792,213.171195 C112.178891,202.633769 126.404416,200.526284 144.84491,191.042601 C179.35498,173.392413 213.865049,134.667374 220.714375,94.6251562 C207.542593,133.08676 167.500376,166.279651 131.146257,179.714869 C106.119871,188.935116 61.0723763,197.891928 61.0723763,197.891928 L59.2283268,196.838185 C28.6697923,181.822354 27.6160498,115.436572 83.4644059,94.0982849 C107.963921,84.6146018 131.146257,89.8833146 157.753257,83.5608592 C185.940871,76.9749681 218.60689,55.9001168 231.778672,28.2393744 Z" fill="#FFFFFF">

        </path>
    </g>
  </symbol>
  <!-- Astro Icon -->
  <symbol id="astro-icon" viewBox="0 0 85 107">
      <path d="M27.5894 91.1365C22.7555 86.7178 21.3444 77.4335 23.3583 70.7072C26.8503 74.948 31.6888 76.2914 36.7005 77.0497C44.4375 78.2199 52.0359 77.7822 59.2232 74.2459C60.0454 73.841 60.8052 73.3027 61.7036 72.7574C62.378 74.714 62.5535 76.6892 62.318 78.6996C61.7452 83.5957 59.3086 87.3778 55.4332 90.2448C53.8835 91.3916 52.2437 92.4167 50.6432 93.4979C45.7262 96.8213 44.3959 100.718 46.2435 106.386C46.2874 106.525 46.3267 106.663 46.426 107C43.9155 105.876 42.0817 104.24 40.6845 102.089C39.2087 99.8193 38.5066 97.3081 38.4696 94.5909C38.4511 93.2686 38.4511 91.9345 38.2733 90.6309C37.8391 87.4527 36.3471 86.0297 33.5364 85.9478C30.6518 85.8636 28.37 87.6469 27.7649 90.4554C27.7187 90.6707 27.6517 90.8837 27.5847 91.1341L27.5894 91.1365Z" fill="white"/>
      <path d="M27.5894 91.1365C22.7555 86.7178 21.3444 77.4335 23.3583 70.7072C26.8503 74.948 31.6888 76.2914 36.7005 77.0497C44.4375 78.2199 52.0359 77.7822 59.2232 74.2459C60.0454 73.841 60.8052 73.3027 61.7036 72.7574C62.378 74.714 62.5535 76.6892 62.318 78.6996C61.7452 83.5957 59.3086 87.3778 55.4332 90.2448C53.8835 91.3916 52.2437 92.4167 50.6432 93.4979C45.7262 96.8213 44.3959 100.718 46.2435 106.386C46.2874 106.525 46.3267 106.663 46.426 107C43.9155 105.876 42.0817 104.24 40.6845 102.089C39.2087 99.8193 38.5066 97.3081 38.4696 94.5909C38.4511 93.2686 38.4511 91.9345 38.2733 90.6309C37.8391 87.4527 36.3471 86.0297 33.5364 85.9478C30.6518 85.8636 28.37 87.6469 27.7649 90.4554C27.7187 90.6707 27.6517 90.8837 27.5847 91.1341L27.5894 91.1365Z" fill="url(#paint0_linear_1_59)"/>
      <path d="M0 69.5866C0 69.5866 14.3139 62.6137 28.6678 62.6137L39.4901 29.1204C39.8953 27.5007 41.0783 26.3999 42.4139 26.3999C43.7495 26.3999 44.9325 27.5007 45.3377 29.1204L56.1601 62.6137C73.1601 62.6137 84.8278 69.5866 84.8278 69.5866C84.8278 69.5866 60.5145 3.35233 60.467 3.21944C59.7692 1.2612 58.5911 0 57.0029 0H27.8274C26.2392 0 25.1087 1.2612 24.3634 3.21944C24.3108 3.34983 0 69.5866 0 69.5866Z" fill="white"/>
      <defs>
      <linearGradient id="paint0_linear_1_59" x1="22.4702" y1="107" x2="69.1451" y2="84.9468" gradientUnits="userSpaceOnUse">
      <stop stop-color="#D83333"/>
      <stop offset="1" stop-color="#F041FF"/>
      </linearGradient>
      </defs>
  </symbol>

  <!-- Angular Icon -->
  <symbol id="angular-icon" viewBox="0 0 960 960">
    <g fill="#fff">
      <polygon points="562.6,109.8 804.1,629.5 829.2,233.1" />
      <polygon points="624.9,655.9 334.3,655.9 297.2,745.8 479.6,849.8 662,745.8" />
      <polygon points="384.1,539.3 575.2,539.3 479.6,307" />
      <polygon points="396.6,109.8 130,233.1 155.1,629.5" />
    </g>
  </symbol>
  
  <!-- Tailwind Icon -->
  <symbol id="tailwind-icon" viewBox="0 0 32 32">
    <path d="M9,13.7q1.4-5.6,7-5.6c5.6,0,6.3,4.2,9.1,4.9q2.8.7,4.9-2.1-1.4,5.6-7,5.6c-5.6,0-6.3-4.2-9.1-4.9Q11.1,10.9,9,13.7ZM2,22.1q1.4-5.6,7-5.6c5.6,0,6.3,4.2,9.1,4.9q2.8.7,4.9-2.1-1.4,5.6-7,5.6c-5.6,0-6.3-4.2-9.1-4.9Q4.1,19.3,2,22.1Z" style="fill:#fff"/>
  </symbol>
</svg>
