<svg xmlns="http://www.w3.org/2000/svg">

 <!-- Check Logo -->
    <symbol id="check" viewBox="0 0 640 640">
        <path fill="currentColor" d="M320 576C461.4 576 576 461.4 576 320C576 178.6 461.4 64 320 64C178.6 64 64 178.6 64 320C64 461.4 178.6 576 320 576zM404.4 276.7L324.4 404.7C320.2 411.4 313 415.6 305.1 416C297.2 416.4 289.6 412.8 284.9 406.4L236.9 342.4C228.9 331.8 231.1 316.8 241.7 308.8C252.3 300.8 267.3 303 275.3 313.6L302.3 349.6L363.7 251.3C370.7 240.1 385.5 236.6 396.8 243.7C408.1 250.8 411.5 265.5 404.4 276.8z"/>
    </symbol>
  
  <!-- GitHub logo -->
  <symbol id="github" viewBox="0 0 512 512">
    <path fill="currentColor" d="M256,8C119,8,8,119,8,256c0,109,70.6,201.6,168.6,234.3c12.3,2.3,16.8-5.3,16.8-11.8
      c0-5.8-0.2-25.1-0.3-45.5c-68.6,14.9-83.1-33.1-83.1-33.1c-11.2-28.4-27.4-36-27.4-36c-22.4-15.3,1.7-15,1.7-15
      c24.8,1.8,37.8,25.5,37.8,25.5c22,37.7,57.7,26.8,71.8,20.5c2.2-15.9,8.6-26.8,15.6-33c-54.8-6.2-112.5-27.4-112.5-121.9
      c0-26.9,9.6-49,25.4-66.3c-2.6-6.2-11-31.2,2.4-65.1c0,0,20.7-6.6,67.8,25.2c19.7-5.5,40.9-8.3,62-8.4c21,0.1,42.3,2.9,62.1,8.4
      c47-31.8,67.7-25.2,67.7-25.2c13.4,33.9,5,58.9,2.4,65.1c15.8,17.3,25.3,39.4,25.3,66.3c0,94.8-57.8,115.6-112.8,121.7
      c8.8,7.6,16.7,22.6,16.7,45.6c0,32.9-0.3,59.4-0.3,67.5c0,6.6,4.4,14.3,16.9,11.8C433.4,457.6,504,364.9,504,256
      C504,119,393,8,256,8z"/>
  </symbol>

  <!-- LinkedIn Symbol -->
  <symbol id="linkedin" viewBox="96 96 448 448">
    <path fill="currentColor" d="M512 96L127.9 96C110.3 96 96 110.5 96 128.3L96 511.7C96 529.5 110.3 544 127.9 544L512 544C529.6 544 544 529.5 544 511.7L544 128.3C544 110.5 529.6 96 512 96zM231.4 480L165 480L165 266.2L231.5 266.2L231.5 480L231.4 480zM198.2 160C219.5 160 236.7 177.2 236.7 198.5C236.7 219.8 219.5 237 198.2 237C176.9 237 159.7 219.8 159.7 198.5C159.7 177.2 176.9 160 198.2 160zM480.3 480L413.9 480L413.9 376C413.9 351.2 413.4 319.3 379.4 319.3C344.8 319.3 339.5 346.3 339.5 374.2L339.5 480L273.1 480L273.1 266.2L336.8 266.2L336.8 295.4L337.7 295.4C346.6 278.6 368.3 260.9 400.6 260.9C467.8 260.9 480.3 305.2 480.3 362.8L480.3 480z"/>
  </symbol>

  <!-- Spring Icon -->
  <symbol id="spring-icon" viewBox="0 0 256 256">
     <g>
        <path d="M38.9437824,35.879008 C89.5234256,-13.1200214 170.398168,-11.8028432 219.397197,39.0402357 C224.929346,31.6640377 229.671187,23.4975328 233.095851,15.0675923 C249.165425,64.0666217 258.912543,105.162582 255.224444,137.038295 C253.380395,163.90873 242.842969,189.725423 225.456217,210.273403 C180.145286,264.014274 99.53398,270.863601 45.7931091,225.55267 L45.7931091,225.55267 L44.765,224.638 L44.7103323,224.601984 C44.5420247,224.484832 44.376007,224.362668 44.2124952,224.235492 C43.7219599,223.853965 43.2765312,223.438607 42.8762093,222.995252 L42.732,222.831 L41.0512675,221.3377 C39.4121124,219.93271 37.7729573,218.52772 36.3188215,216.93771 L35.7825547,216.332423 C-13.2164747,165.752779 -11.6358609,84.8780374 38.9437824,35.879008 Z M57.9111486,207.375611 C53.169307,203.687512 46.3199803,204.214383 42.6318814,208.956225 C39.3888978,213.125775 39.4048731,218.924805 42.6798072,222.771269 L42.732,222.831 L44.765,224.638 L44.9644841,224.773953 C49.5691585,227.80174 55.7644273,227.175885 59.2982065,222.896387 L59.4917624,222.654878 C63.1798614,217.913037 62.3895545,211.06371 57.9111486,207.375611 Z M231.778672,28.2393744 C218.60689,55.9001168 185.940871,76.9749681 157.753257,83.5608592 C131.146257,89.8833146 107.963921,84.6146018 83.4644059,94.0982849 C27.6160498,115.436572 28.6697923,181.822354 59.2283268,196.838185 L59.2283268,196.838185 L61.0723763,197.891928 C61.0723763,197.891928 83.1456487,193.50309 104.973663,187.707242 L106.843514,187.207079 C115.561826,184.857554 124.138869,182.296538 131.146257,179.714869 C167.500376,166.279651 207.542593,133.08676 220.714375,94.6251562 C213.865049,134.667374 179.35498,173.392413 144.84491,191.042601 C126.404416,200.526284 112.178891,202.633769 81.883792,213.171195 C78.195693,214.488373 75.297901,215.805551 75.297901,215.805551 C75.6675607,215.754564 76.0372203,215.70481 76.4060145,215.65629 L77.1421925,215.560893 L77.1421925,215.560893 L77.8745239,215.468787 C84.5652297,214.639554 90.5771682,214.224938 90.5771682,214.224938 C133.517178,212.117452 200.956702,226.342977 232.305544,184.45671 C264.444692,141.780136 246.531068,72.7599979 231.778672,28.2393744 Z" fill="#6DB33F">

        </path>
        <path d="M57.9111486,207.375611 C62.3895545,211.06371 63.1798614,217.913037 59.4917624,222.654878 C55.8036635,227.39672 48.9543368,227.923591 44.2124952,224.235492 C39.4706537,220.547393 38.9437824,213.698066 42.6318814,208.956225 C46.3199803,204.214383 53.169307,203.687512 57.9111486,207.375611 Z M231.778672,28.2393744 C246.531068,72.7599979 264.444692,141.780136 232.305544,184.45671 C200.956702,226.342977 133.517178,212.117452 90.5771682,214.224938 C90.5771682,214.224938 84.5652297,214.639554 77.8745239,215.468787 L77.1421925,215.560893 C76.5300999,215.63902 75.9140004,215.720572 75.297901,215.805551 C75.297901,215.805551 78.195693,214.488373 81.883792,213.171195 C112.178891,202.633769 126.404416,200.526284 144.84491,191.042601 C179.35498,173.392413 213.865049,134.667374 220.714375,94.6251562 C207.542593,133.08676 167.500376,166.279651 131.146257,179.714869 C106.119871,188.935116 61.0723763,197.891928 61.0723763,197.891928 L59.2283268,196.838185 C28.6697923,181.822354 27.6160498,115.436572 83.4644059,94.0982849 C107.963921,84.6146018 131.146257,89.8833146 157.753257,83.5608592 C185.940871,76.9749681 218.60689,55.9001168 231.778672,28.2393744 Z" fill="#FFFFFF">

        </path>
    </g>
  </symbol>
  <!-- Astro Icon -->
  <symbol id="astro-icon" viewBox="0 0 85 107">
      <path d="M27.5894 91.1365C22.7555 86.7178 21.3444 77.4335 23.3583 70.7072C26.8503 74.948 31.6888 76.2914 36.7005 77.0497C44.4375 78.2199 52.0359 77.7822 59.2232 74.2459C60.0454 73.841 60.8052 73.3027 61.7036 72.7574C62.378 74.714 62.5535 76.6892 62.318 78.6996C61.7452 83.5957 59.3086 87.3778 55.4332 90.2448C53.8835 91.3916 52.2437 92.4167 50.6432 93.4979C45.7262 96.8213 44.3959 100.718 46.2435 106.386C46.2874 106.525 46.3267 106.663 46.426 107C43.9155 105.876 42.0817 104.24 40.6845 102.089C39.2087 99.8193 38.5066 97.3081 38.4696 94.5909C38.4511 93.2686 38.4511 91.9345 38.2733 90.6309C37.8391 87.4527 36.3471 86.0297 33.5364 85.9478C30.6518 85.8636 28.37 87.6469 27.7649 90.4554C27.7187 90.6707 27.6517 90.8837 27.5847 91.1341L27.5894 91.1365Z" fill="white"/>
      <path d="M27.5894 91.1365C22.7555 86.7178 21.3444 77.4335 23.3583 70.7072C26.8503 74.948 31.6888 76.2914 36.7005 77.0497C44.4375 78.2199 52.0359 77.7822 59.2232 74.2459C60.0454 73.841 60.8052 73.3027 61.7036 72.7574C62.378 74.714 62.5535 76.6892 62.318 78.6996C61.7452 83.5957 59.3086 87.3778 55.4332 90.2448C53.8835 91.3916 52.2437 92.4167 50.6432 93.4979C45.7262 96.8213 44.3959 100.718 46.2435 106.386C46.2874 106.525 46.3267 106.663 46.426 107C43.9155 105.876 42.0817 104.24 40.6845 102.089C39.2087 99.8193 38.5066 97.3081 38.4696 94.5909C38.4511 93.2686 38.4511 91.9345 38.2733 90.6309C37.8391 87.4527 36.3471 86.0297 33.5364 85.9478C30.6518 85.8636 28.37 87.6469 27.7649 90.4554C27.7187 90.6707 27.6517 90.8837 27.5847 91.1341L27.5894 91.1365Z" fill="url(#paint0_linear_1_59)"/>
      <path d="M0 69.5866C0 69.5866 14.3139 62.6137 28.6678 62.6137L39.4901 29.1204C39.8953 27.5007 41.0783 26.3999 42.4139 26.3999C43.7495 26.3999 44.9325 27.5007 45.3377 29.1204L56.1601 62.6137C73.1601 62.6137 84.8278 69.5866 84.8278 69.5866C84.8278 69.5866 60.5145 3.35233 60.467 3.21944C59.7692 1.2612 58.5911 0 57.0029 0H27.8274C26.2392 0 25.1087 1.2612 24.3634 3.21944C24.3108 3.34983 0 69.5866 0 69.5866Z" fill="white"/>
      <defs>
      <linearGradient id="paint0_linear_1_59" x1="22.4702" y1="107" x2="69.1451" y2="84.9468" gradientUnits="userSpaceOnUse">
      <stop stop-color="#D83333"/>
      <stop offset="1" stop-color="#F041FF"/>
      </linearGradient>
      </defs>
  </symbol>

  <!-- Angular Icon -->
  <symbol id="angular-icon" viewBox="0 0 960 960">
    <g fill="#fff">
      <polygon points="562.6,109.8 804.1,629.5 829.2,233.1" />
      <polygon points="624.9,655.9 334.3,655.9 297.2,745.8 479.6,849.8 662,745.8" />
      <polygon points="384.1,539.3 575.2,539.3 479.6,307" />
      <polygon points="396.6,109.8 130,233.1 155.1,629.5" />
    </g>
  </symbol>
  
  <!-- Tailwind Icon -->
  <symbol id="tailwind-icon" viewBox="0 0 32 32">
    <path d="M9,13.7q1.4-5.6,7-5.6c5.6,0,6.3,4.2,9.1,4.9q2.8.7,4.9-2.1-1.4,5.6-7,5.6c-5.6,0-6.3-4.2-9.1-4.9Q11.1,10.9,9,13.7ZM2,22.1q1.4-5.6,7-5.6c5.6,0,6.3,4.2,9.1,4.9q2.8.7,4.9-2.1-1.4,5.6-7,5.6c-5.6,0-6.3-4.2-9.1-4.9Q4.1,19.3,2,22.1Z" style="fill:#fff"/>
  </symbol>

  <!-- Instagram Icon -->
  <symbol id="instagram-icon" viewBox="0 0 32 32">
    <rect x="2" y="2" width="28" height="28" rx="6" fill="url(#paint0_radial_87_7153)"/>
    <rect x="2" y="2" width="28" height="28" rx="6" fill="url(#paint1_radial_87_7153)"/>
    <rect x="2" y="2" width="28" height="28" rx="6" fill="url(#paint2_radial_87_7153)"/>
    <path d="M23 10.5C23 11.3284 22.3284 12 21.5 12C20.6716 12 20 11.3284 20 10.5C20 9.67157 20.6716 9 21.5 9C22.3284 9 23 9.67157 23 10.5Z" fill="white"/>
    <path fill-rule="evenodd" clip-rule="evenodd" d="M16 21C18.7614 21 21 18.7614 21 16C21 13.2386 18.7614 11 16 11C13.2386 11 11 13.2386 11 16C11 18.7614 13.2386 21 16 21ZM16 19C17.6569 19 19 17.6569 19 16C19 14.3431 17.6569 13 16 13C14.3431 13 13 14.3431 13 16C13 17.6569 14.3431 19 16 19Z" fill="white"/>
    <path fill-rule="evenodd" clip-rule="evenodd" d="M6 15.6C6 12.2397 6 10.5595 6.65396 9.27606C7.2292 8.14708 8.14708 7.2292 9.27606 6.65396C10.5595 6 12.2397 6 15.6 6H16.4C19.7603 6 21.4405 6 22.7239 6.65396C23.8529 7.2292 24.7708 8.14708 25.346 9.27606C26 10.5595 26 12.2397 26 15.6V16.4C26 19.7603 26 21.4405 25.346 22.7239C24.7708 23.8529 23.8529 24.7708 22.7239 25.346C21.4405 26 19.7603 26 16.4 26H15.6C12.2397 26 10.5595 26 9.27606 25.346C8.14708 24.7708 7.2292 23.8529 6.65396 22.7239C6 21.4405 6 19.7603 6 16.4V15.6ZM15.6 8H16.4C18.1132 8 19.2777 8.00156 20.1779 8.0751C21.0548 8.14674 21.5032 8.27659 21.816 8.43597C22.5686 8.81947 23.1805 9.43139 23.564 10.184C23.7234 10.4968 23.8533 10.9452 23.9249 11.8221C23.9984 12.7223 24 13.8868 24 15.6V16.4C24 18.1132 23.9984 19.2777 23.9249 20.1779C23.8533 21.0548 23.7234 21.5032 23.564 21.816C23.1805 22.5686 22.5686 23.1805 21.816 23.564C21.5032 23.7234 21.0548 23.8533 20.1779 23.9249C19.2777 23.9984 18.1132 24 16.4 24H15.6C13.8868 24 12.7223 23.9984 11.8221 23.9249C10.9452 23.8533 10.4968 23.7234 10.184 23.564C9.43139 23.1805 8.81947 22.5686 8.43597 21.816C8.27659 21.5032 8.14674 21.0548 8.0751 20.1779C8.00156 19.2777 8 18.1132 8 16.4V15.6C8 13.8868 8.00156 12.7223 8.0751 11.8221C8.14674 10.9452 8.27659 10.4968 8.43597 10.184C8.81947 9.43139 9.43139 8.81947 10.184 8.43597C10.4968 8.27659 10.9452 8.14674 11.8221 8.0751C12.7223 8.00156 13.8868 8 15.6 8Z" fill="white"/>
    <defs>
    <radialGradient id="paint0_radial_87_7153" cx="0" cy="0" r="1" gradientUnits="userSpaceOnUse" gradientTransform="translate(12 23) rotate(-55.3758) scale(25.5196)">
    <stop stop-color="#B13589"/>
    <stop offset="0.79309" stop-color="#C62F94"/>
    <stop offset="1" stop-color="#8A3AC8"/>
    </radialGradient>
    <radialGradient id="paint1_radial_87_7153" cx="0" cy="0" r="1" gradientUnits="userSpaceOnUse" gradientTransform="translate(11 31) rotate(-65.1363) scale(22.5942)">
    <stop stop-color="#E0E8B7"/>
    <stop offset="0.444662" stop-color="#FB8A2E"/>
    <stop offset="0.71474" stop-color="#E2425C"/>
    <stop offset="1" stop-color="#E2425C" stop-opacity="0"/>
    </radialGradient>
    <radialGradient id="paint2_radial_87_7153" cx="0" cy="0" r="1" gradientUnits="userSpaceOnUse" gradientTransform="translate(0.500002 3) rotate(-8.1301) scale(38.8909 8.31836)">
    <stop offset="0.156701" stop-color="#406ADC"/>
    <stop offset="0.467799" stop-color="#6A45BE"/>
    <stop offset="1" stop-color="#6A45BE" stop-opacity="0"/>
    </radialGradient>
    </defs>
  </symbol>

  <!-- Facebook Icon -->
  <symbol id="facebook-icon" viewBox="0 0 16 16">
    <path fill="#1877F2" d="M15 8a7 7 0 00-7-7 7 7 0 00-1.094 13.915v-4.892H5.13V8h1.777V6.458c0-1.754 1.045-2.724 2.644-2.724.766 0 1.567.137 1.567.137v1.723h-.883c-.87 0-1.14.54-1.14 1.093V8h1.941l-.31 2.023H9.094v4.892A7.001 7.001 0 0015 8z"/><path fill="#ffffff" d="M10.725 10.023L11.035 8H9.094V6.687c0-.553.27-1.093 1.14-1.093h.883V3.87s-.801-.137-1.567-.137c-1.6 0-2.644.97-2.644 2.724V8H5.13v2.023h1.777v4.892a7.037 7.037 0 002.188 0v-4.892h1.63z"/>
  </symbol>

  <!-- WhatsApp Icon -->
  <symbol id="whatsapp-icon" viewBox="0 0 48 48">
        <defs>

</defs>
    <g id="Icons" stroke="none" stroke-width="1" fill="none" fill-rule="evenodd">
        <g id="Color-" transform="translate(-700.000000, -360.000000)" fill="#67C15E">
            <path d="M723.993033,360 C710.762252,360 700,370.765287 700,383.999801 C700,389.248451 701.692661,394.116025 704.570026,398.066947 L701.579605,406.983798 L710.804449,404.035539 C714.598605,406.546975 719.126434,408 724.006967,408 C737.237748,408 748,397.234315 748,384.000199 C748,370.765685 737.237748,360.000398 724.006967,360.000398 L723.993033,360.000398 L723.993033,360 Z M717.29285,372.190836 C716.827488,371.07628 716.474784,371.034071 715.769774,371.005401 C715.529728,370.991464 715.262214,370.977527 714.96564,370.977527 C714.04845,370.977527 713.089462,371.245514 712.511043,371.838033 C711.806033,372.557577 710.056843,374.23638 710.056843,377.679202 C710.056843,381.122023 712.567571,384.451756 712.905944,384.917648 C713.258648,385.382743 717.800808,392.55031 724.853297,395.471492 C730.368379,397.757149 732.00491,397.545307 733.260074,397.27732 C735.093658,396.882308 737.393002,395.527239 737.971421,393.891043 C738.54984,392.25405 738.54984,390.857171 738.380255,390.560912 C738.211068,390.264652 737.745308,390.095816 737.040298,389.742615 C736.335288,389.389811 732.90737,387.696673 732.25849,387.470894 C731.623543,387.231179 731.017259,387.315995 730.537963,387.99333 C729.860819,388.938653 729.198006,389.89831 728.661785,390.476494 C728.238619,390.928051 727.547144,390.984595 726.969123,390.744481 C726.193254,390.420348 724.021298,389.657798 721.340985,387.273388 C719.267356,385.42535 717.856938,383.125756 717.448104,382.434484 C717.038871,381.729275 717.405907,381.319529 717.729948,380.938852 C718.082653,380.501232 718.421026,380.191036 718.77373,379.781688 C719.126434,379.372738 719.323884,379.160897 719.549599,378.681068 C719.789645,378.215575 719.62006,377.735746 719.450874,377.382942 C719.281687,377.030139 717.871269,373.587317 717.29285,372.190836 Z" id="Whatsapp">

          </path>
        </g>
    </g>
  </symbol>

  <!-- TikTok Icon -->
  <symbol id="tiktok-icon" viewBox="62.370000000000005 70.49 675.3000000000001 675.3000000000001">
    <g fill="#ee1d52">

      <path d="M196 498.32l1.64 4.63c-.21-.53-.81-2.15-1.64-4.63zM260.9 393.39c2.88-24.88 12.66-38.81 31.09-53.09 26.37-19.34 59.31-8.4 59.31-8.4V267a135.84 135.84 0 0 1 23.94 1.48V352s-32.93-10.94-59.3 8.41c-18.42 14.27-28.22 28.21-31.09 53.09-.09 13.51 2.34 31.17 13.53 46.44q-4.15-2.22-8.46-5.06c-24.65-17.27-29.14-43.18-29.02-61.49zM511.25 147c-18.14-20.74-25-41.68-27.48-56.39h22.82s-4.55 38.57 28.61 76.5l.46.51A132.76 132.76 0 0 1 511.25 147zM621.18 205.8v81.84s-29.12-1.19-50.67-6.91c-30.09-8-49.43-20.27-49.43-20.27s-13.36-8.75-14.44-9.36v169c0 9.41-2.47 32.91-10 52.51-9.83 25.64-25 42.47-27.79 45.91 0 0-18.45 22.75-51 38.07-29.34 13.82-55.1 13.47-62.8 13.82 0 0-44.53 1.84-84.6-25.33a169.63 169.63 0 0 1-24.16-20.26l.2.15c40.08 27.17 84.6 25.33 84.6 25.33 7.71-.35 33.47 0 62.8-13.82 32.52-15.32 51-38.07 51-38.07 2.76-3.44 18-20.27 27.79-45.92 7.51-19.59 10-43.1 10-52.51V231c1.08.62 14.43 9.37 14.43 9.37s19.35 12.28 49.44 20.27c21.56 5.72 50.67 6.91 50.67 6.91v-64.13c9.96 2.33 18.45 2.96 23.96 2.38z"/>

    </g>

    <path d="M597.23 203.42v64.11s-29.11-1.19-50.67-6.91c-30.09-8-49.44-20.27-49.44-20.27s-13.35-8.75-14.43-9.37V400c0 9.41-2.47 32.92-10 52.51-9.83 25.65-25 42.48-27.79 45.92 0 0-18.46 22.75-51 38.07-29.33 13.82-55.09 13.47-62.8 13.82 0 0-44.52 1.84-84.6-25.33l-.2-.15a157.5 157.5 0 0 1-11.93-13.52c-12.79-16.27-20.63-35.51-22.6-41a.24.24 0 0 1 0-.07c-3.17-9.54-9.83-32.45-8.92-54.64 1.61-39.15 14.81-63.18 18.3-69.2A162.84 162.84 0 0 1 256.68 303a148.37 148.37 0 0 1 42.22-25 141.61 141.61 0 0 1 52.4-11v64.9s-32.94-10.9-59.3 8.4c-18.43 14.28-28.21 28.21-31.09 53.09-.12 18.31 4.37 44.22 29 61.5q4.31 2.85 8.46 5.06a65.85 65.85 0 0 0 15.5 15.05c24.06 15.89 44.22 17 70 6.68C401.06 474.78 414 459.23 420 442c3.77-10.76 3.72-21.59 3.72-32.79V90.61h60c2.48 14.71 9.34 35.65 27.48 56.39a132.76 132.76 0 0 0 24.41 20.62c2.64 2.85 16.14 16.94 33.47 25.59a130.62 130.62 0 0 0 28.15 10.21z"/>

    <path d="M187.89 450.39v.05l1.48 4.21c-.17-.49-.72-1.98-1.48-4.26z" fill="#69c9d0"/>

    <path d="M298.9 278a148.37 148.37 0 0 0-42.22 25 162.84 162.84 0 0 0-35.52 43.5c-3.49 6-16.69 30.05-18.3 69.2-.91 22.19 5.75 45.1 8.92 54.64a.24.24 0 0 0 0 .07c2 5.44 9.81 24.68 22.6 41a157.5 157.5 0 0 0 11.93 13.52 166.64 166.64 0 0 1-35.88-33.64c-12.68-16.13-20.5-35.17-22.54-40.79a1 1 0 0 1 0-.12v-.07c-3.18-9.53-9.86-32.45-8.93-54.67 1.61-39.15 14.81-63.18 18.3-69.2a162.68 162.68 0 0 1 35.52-43.5 148.13 148.13 0 0 1 42.22-25 144.63 144.63 0 0 1 29.78-8.75 148 148 0 0 1 46.57-.69V267a141.61 141.61 0 0 0-52.45 11z" fill="#69c9d0"/>

    <path d="M483.77 90.61h-60v318.61c0 11.2 0 22-3.72 32.79-6.06 17.22-18.95 32.77-36.13 39.67-25.79 10.36-45.95 9.21-70-6.68a65.85 65.85 0 0 1-15.54-15c20.49 10.93 38.83 10.74 61.55 1.62 17.17-6.9 30.08-22.45 36.12-39.68 3.78-10.76 3.73-21.59 3.73-32.78V70.49h82.85s-.93 7.92 1.14 20.12zM597.23 185.69v17.73a130.62 130.62 0 0 1-28.1-10.21c-17.33-8.65-30.83-22.74-33.47-25.59a93.69 93.69 0 0 0 9.52 5.48c21.07 10.52 41.82 13.66 52.05 12.59z" fill="#69c9d0"/>

    <path d="M486.85 701.51a22.75 22.75 0 0 1-1-6.73v-.16a24.53 24.53 0 0 0 1 6.89zM536.44 694.62v.16a23.07 23.07 0 0 1-1 6.73 24.89 24.89 0 0 0 1-6.89z" fill="none"/>

    <path d="M485.84 694.78a22.75 22.75 0 0 0 1 6.73 2.59 2.59 0 0 0 .14.45 25.28 25.28 0 0 0 24.16 17.8v25.59c-12.46 0-21.38.44-35-7.59-15.44-9.16-24.14-25.91-24.14-43.3 0-17.94 9.74-35.91 26.25-44.57 12-6.28 21.09-6.32 32.92-6.32v25.58a25.31 25.31 0 0 0-25.31 25.31z" fill="#69c9d0"/>

    <path d="M536.64 694.78a23.07 23.07 0 0 1-1 6.73c0 .15-.09.3-.14.45a25.3 25.3 0 0 1-24.16 17.8v25.59c12.45 0 21.38.44 34.95-7.59 15.49-9.16 24.21-25.91 24.21-43.3 0-17.94-9.74-35.91-26.25-44.57-12-6.28-21.09-6.32-32.91-6.32v25.58a25.31 25.31 0 0 1 25.3 25.31z" fill="#ee1d52"/>

    <path d="M119.51 620.36h93.71l-8.66 25.78H180v98.67h-30.13v-98.67h-30.36zm248.35 0v25.78h30.36v98.67h30.17v-98.67h24.52l8.66-25.78zm-134.25 29.38A14.6 14.6 0 1 0 219 635.15a14.59 14.59 0 0 0 14.61 14.59zM219 744.81h29.58v-84.75H219zM355 649h-34.6l-29.82 29.82v-58.36h-29.39l-.09 124.35h29.67v-32.4L300 704l28.8 40.77h31.72l-41.72-59.62zm283.77 36.17L674.94 649h-34.59l-29.83 29.82v-58.36h-29.38L581 744.81h29.68v-32.4L620 704l28.8 40.77h31.73zm-76.06 9.27c0 28.1-23.09 50.89-51.57 50.89s-51.57-22.79-51.57-50.89 23.09-50.89 51.57-50.89 51.57 22.8 51.57 50.91zm-26.27 0a25.3 25.3 0 1 0-25.3 25.3 25.3 25.3 0 0 0 25.3-25.28z"/>
  </symbol>

  <!-- Catalog Icon -->
  <symbol id="catalog-icon" viewBox="0 0 24 24">  
    <path fill="currentColor" id="Path_82" data-name="Path 82" d="M-10,6.5v9a.5.5,0,0,1-.5.5h-7a.5.5,0,0,1-.5-.5v-1a.5.5,0,0,1,.5-.5.5.5,0,0,1,.5.5V15h6V7h-1.5a.5.5,0,0,1-.5-.5.5.5,0,0,1,.5-.5h2A.5.5,0,0,1-10,6.5ZM-12.5,13a.5.5,0,0,0,.5-.5.5.5,0,0,0-.5-.5H-14V11h1.5a.5.5,0,0,0,.5-.5.5.5,0,0,0-.5-.5H-14V9h1.5a.5.5,0,0,0,.5-.5.5.5,0,0,0-.5-.5H-14V3.5a.5.5,0,0,0-.5-.5h-2a.5.5,0,0,0-.5.5.5.5,0,0,0,.5.5H-15v8h-6v-.5a.5.5,0,0,0-.5-.5.5.5,0,0,0-.5.5v1a.5.5,0,0,0,.5.5h9Zm-6-3h-7a.5.5,0,0,1-.5-.5V.5a.5.5,0,0,1,.5-.5h7a.5.5,0,0,1,.5.5V5h1.5a.5.5,0,0,1,.5.5.5.5,0,0,1-.5.5H-18V7h1.5a.5.5,0,0,1,.5.5.5.5,0,0,1-.5.5H-18V9h1.5a.5.5,0,0,1,.5.5.5.5,0,0,1-.5.5ZM-25,9h6V1h-6Zm4.5-3h-3a.5.5,0,0,0-.5.5.5.5,0,0,0,.5.5h3a.5.5,0,0,0,.5-.5A.5.5,0,0,0-20.5,6Zm0-2h-3a.5.5,0,0,0-.5.5.5.5,0,0,0,.5.5h3a.5.5,0,0,0,.5-.5A.5.5,0,0,0-20.5,4Zm0-2h-3a.5.5,0,0,0-.5.5.5.5,0,0,0,.5.5h3a.5.5,0,0,0,.5-.5A.5.5,0,0,0-20.5,2Z" transform="translate(26)"/>
  </symbol>

  <!-- Web Icon -->
  <symbol id="web-icon" viewBox="0 0 24 24">
    <g id="style=stroke" clip-path="url(#clip0_1_1828)">
    <g id="web">
    <path id="vector (Stroke)"  fill-rule="evenodd" clip-rule="evenodd" d="M10.4425 2.44429C10.0752 3.64002 9.32073 6.25569 8.89915 8.83258C9.99331 9.00921 11.0621 9.12209 12 9.12209C12.9379 9.12209 14.0067 9.00921 15.1009 8.83258C14.6793 6.25569 13.9248 3.64002 13.5575 2.44429C13.0509 2.3624 12.5307 2.31977 12 2.31977C11.4693 2.31977 10.9491 2.3624 10.4425 2.44429ZM15.3337 2.90893C15.737 4.305 16.2958 6.42828 16.6448 8.54737C18.1513 8.23703 19.5727 7.85824 20.605 7.56109C19.4986 5.42102 17.6172 3.74662 15.3337 2.90893ZM21.2129 9.01933C20.1222 9.33683 18.5423 9.76328 16.8594 10.1057C16.9295 10.7564 16.9709 11.3958 16.9709 12C16.9709 12.8816 16.8827 13.8411 16.7445 14.8058C18.759 14.3858 20.6068 13.849 21.5557 13.5575C21.6376 13.0509 21.6802 12.5307 21.6802 12C21.6802 10.959 21.5162 9.95751 21.2129 9.01933ZM21.0911 15.3337C19.9166 15.6729 18.229 16.1219 16.4634 16.4634C16.1219 18.229 15.6729 19.9166 15.3337 21.0911C17.9978 20.1138 20.1138 17.9978 21.0911 15.3337ZM13.5576 21.5557C13.849 20.6068 14.3858 18.759 14.8058 16.7445C13.8411 16.8827 12.8816 16.9709 12 16.9709C11.1184 16.9709 10.1589 16.8827 9.19423 16.7445C9.61421 18.759 10.151 20.6068 10.4425 21.5557C10.9491 21.6376 11.4693 21.6802 12 21.6802C12.5307 21.6802 13.0509 21.6376 13.5576 21.5557ZM8.66629 21.0911C8.32707 19.9166 7.8781 18.229 7.53658 16.4634C5.77099 16.1219 4.08335 15.6729 2.90891 15.3337C3.88622 17.9978 6.00216 20.1138 8.66629 21.0911ZM2.44429 13.5575C3.39316 13.849 5.24101 14.3858 7.25548 14.8058C7.1173 13.8411 7.02907 12.8816 7.02907 12C7.02907 11.3958 7.07048 10.7564 7.14056 10.1057C5.45769 9.76328 3.87779 9.33683 2.78712 9.01933C2.48383 9.95751 2.31977 10.959 2.31977 12C2.31977 12.5307 2.3624 13.0509 2.44429 13.5575ZM3.39504 7.56109C4.42731 7.85824 5.84865 8.23703 7.35522 8.54737C7.70416 6.42827 8.26303 4.305 8.66626 2.90893C6.38282 3.74662 4.50139 5.42102 3.39504 7.56109ZM8.68924 10.3888C8.63137 10.9544 8.59884 11.4968 8.59884 12C8.59884 12.9399 8.71224 14.012 8.88985 15.1102C9.98798 15.2878 11.0601 15.4012 12 15.4012C12.9399 15.4012 14.012 15.2878 15.1102 15.1102C15.2878 14.012 15.4012 12.9399 15.4012 12C15.4012 11.4968 15.3686 10.9544 15.3108 10.3888C14.1776 10.5703 13.0348 10.6919 12 10.6919C10.9652 10.6919 9.82236 10.5703 8.68924 10.3888ZM9.67273 0.991173C10.4243 0.833026 11.2029 0.75 12 0.75C12.7971 0.75 13.5757 0.833026 14.3273 0.991174C18.0108 1.76627 21.0281 4.34097 22.42 7.75174C22.9554 9.06356 23.25 10.4983 23.25 12C23.25 12.7971 23.167 13.5757 23.0088 14.3273C22.0943 18.6736 18.6736 22.0943 14.3273 23.0088C13.5757 23.167 12.7971 23.25 12 23.25C11.2029 23.25 10.4243 23.167 9.67273 23.0088C5.32644 22.0943 1.90572 18.6736 0.991173 14.3273C0.833026 13.5757 0.75 12.7971 0.75 12C0.75 10.4972 1.04509 9.06132 1.58123 7.74866C2.97369 4.33943 5.99026 1.76604 9.67273 0.991173Z" fill="#fff"/>
    </g>
    </g>
    <defs>
    <clipPath id="clip0_1_1828">
    <rect width="24" height="24" fill="white"/>
    </clipPath>
    </defs>
  </symbol>
  <!-- Factory Icon -->
  <symbol id="factory-icon" viewBox="0 0 24 24">
      <path fill="currentColor" d="M22,1H18a1,1,0,0,0-1,1V9H15V7a1,1,0,0,0-1.447-.895L9,8.382V7a1,1,0,0,0-1.447-.895l-6,3A1,1,0,0,0,1,10V22a1,1,0,0,0,1,1H22a1,1,0,0,0,1-1V2A1,1,0,0,0,22,1ZM21,3V5H19V3ZM3,21V10.618l4-2V10a1,1,0,0,0,1.447.895L13,8.618V10a1,1,0,0,0,1,1h4a1,1,0,0,0,1-1V7h2V21Zm2-8H8v2H5Zm5,0h4v2H10Zm6,0h3v2H16ZM5,17H8v2H5Zm5,0h4v2H10Zm6,0h3v2H16Z"/>
  </symbol> 
</svg>
